<?xml version="1.0" encoding="utf-8"?>
<!-- Generator: Adobe Illustrator 25.4.1, SVG Export Plug-In . SVG Version: 6.00 Build 0)  -->
<svg version="1.1" id="Layer_1" xmlns="http://www.w3.org/2000/svg" xmlns:xlink="http://www.w3.org/1999/xlink" x="0px" y="0px"
	 viewBox="0 0 720 720" style="enable-background:new 0 0 720 720;" xml:space="preserve">
<style type="text/css">
	.st0{fill:none;}
	.st1{fill:#E1E8EB;stroke:#000000;stroke-miterlimit:10;}
</style>
<rect class="st0" width="720" height="720"/>
<path class="st1" d="M403.9,506c-3.4,3.4-10.7,1-16.3,1c-22.4,0.1-44.8-0.1-67.3,0.1c-4.6,0-6.1-1.4-5.7-5.9c0.3-4.2,0.3-8.3,0-12.5
	c-0.2-3.4,1.2-4.4,4.4-4.3c4.7,0.2,9.4-0.1,14.1,0.1c3.1,0.1,4.3-1.1,4-4.1c0-0.5,0-1.1,0-1.6c0-45.2-0.1-90.4,0.1-135.6
	c0-4.8-1.3-6.2-6.1-6c-5.3,0.1-12.2,2.5-15.6-1.2c-3.2-3.3-0.5-10-1-15.2c-0.5-4.7,1.1-6.3,6-6.2c18.8,0.3,37.6,0.2,56.4,0
	c4.5,0,5.8,1.2,5.8,5.8c-0.2,26.4-0.1,52.8-0.1,79.2c0,26.4,0.1,52.8-0.1,79.2c0,4.4,1.1,6.2,5.7,5.8c4.1-0.4,8.3,0.1,12.5-0.1
	c3.2-0.1,4.8,0.8,4.4,4.3C404.7,494.6,407.8,502.1,403.9,506z"/>
<path class="st1" d="M360,100c-143.5,0-259.8,116.1-260,259.7C99.8,503.5,216.3,620,360,620c143.6,0,259.7-116,260-259.7
	C620.3,216.6,503.8,100,360,100z M360.2,597.5c-131.1,0.4-237.9-106.3-237.7-237.7c0.2-131.3,106.3-237.3,237.5-237.2
	c131-0.1,237.3,106,237.4,237c0,0.1,0,0.3,0,0.4C597.6,491.1,491.8,597,360.2,597.5L360.2,597.5z"/>
<path class="st1" d="M393.9,235.6c0.1,18.7-15,34-33.7,34.1s-34-15-34.1-33.7c-0.1-18.7,15-34,33.7-34.1c0.1,0,0.3,0,0.4,0
	C378.8,202,393.8,217.1,393.9,235.6z"/>
</svg>
