<?xml version="1.0" encoding="utf-8"?>
<!-- Generator: Adobe Illustrator 25.4.1, SVG Export Plug-In . SVG Version: 6.00 Build 0)  -->
<svg version="1.1" id="Layer_1" xmlns="http://www.w3.org/2000/svg" xmlns:xlink="http://www.w3.org/1999/xlink" x="0px" y="0px"
	 viewBox="0 0 720 720" style="enable-background:new 0 0 720 720;" xml:space="preserve">
<style type="text/css">
	.st0{fill:none;}
	.st1{fill:#E1E8EB;stroke:#000000;stroke-miterlimit:10;}
</style>
<rect class="st0" width="720" height="720"/>
<path class="st1" d="M619.9,115.3v-8.6c-2,0.5-3.2,0.7-4.3,1.1c-55.4,17.3-110.8,34.4-166.1,52c-6.4,2.2-13.2,2.4-19.8,0.7
	c-47.6-12.1-95.2-23.9-142.8-35.9c-4.1-1.2-8.5-1.2-12.7-0.1c-55,15.6-110,31.1-165,46.2c-6.9,1.9-9,4.6-9,11.8
	c0.2,140.9,0.2,281.9-0.1,422.8c0,9.3,3,8.7,9.8,6.8c54.6-15.6,109.4-30.9,164-46.4c4.4-1.4,9.1-1.4,13.5-0.3
	c48.5,12.3,97.1,24.2,145.6,36.5c5,1.4,10.4,1.3,15.3-0.3c54.5-17.1,109-34.2,163.7-50.9c6.8-2.1,8.1-5.3,8.1-11.7
	C619.8,397.8,619.8,256.5,619.9,115.3z M260.3,519.4c0,6.9-2.2,9.5-8.6,11.3c-34.5,9.4-69,19.3-103.4,29c-2.4,0.7-4.8,1-8.1,1.7
	v-98.6c0-83.6,0.1-167.3-0.2-250.9c0-6.5,1.9-8.9,8-10.5c34.2-9.4,68.4-19,102.5-29c7-2,9.9-2.2,9.9,6.9
	C260,292.7,260,406.1,260.3,519.4z M410.9,555.4c-34.6-9.2-69.4-17.8-104.3-26.1c-5.5-1.3-6.7-3.4-6.7-8.6
	c0.1-114.9,0.1-229.8,0-344.7c0-5.4,1-7,6.6-5.5c35.3,9.1,70.6,18.1,106.1,26.6c6.4,1.5,7.4,4.5,7.4,10.2c-0.2,57-0.2,114-0.1,171
	c0,56.7-0.1,113.3,0.2,170C420.2,555.9,418.8,557.5,410.9,555.4L410.9,555.4z M579.9,510.4c0,4.9-0.1,8.5-6.2,10.3
	c-36.3,11-72.5,22.5-108.8,33.8c-1.6,0.3-3.3,0.5-5,0.6v-9.6c0-112.8-0.1-225.5-0.2-338.3c0-7.1,2.1-9.8,8.9-11.8
	c34.3-10.3,68.4-21.2,102.5-32.1c6.3-2,8.9-2.2,8.9,6.1C579.8,283,579.8,396.7,579.9,510.4L579.9,510.4z"/>
</svg>
