<?xml version="1.0" encoding="utf-8"?>
<!-- Generator: Adobe Illustrator 25.4.1, SVG Export Plug-In . SVG Version: 6.00 Build 0)  -->
<svg version="1.1" id="Layer_1" xmlns="http://www.w3.org/2000/svg" xmlns:xlink="http://www.w3.org/1999/xlink" x="0px" y="0px"
	 viewBox="0 0 720 720" style="enable-background:new 0 0 720 720;" xml:space="preserve">
<style type="text/css">
	.st0{fill:none;}
	.st1{fill:#E1E8EB;stroke:#000000;stroke-miterlimit:10;}
</style>
<rect class="st0" width="720" height="720"/>
<path class="st1" d="M359.8,400.8c-82.2,0-164.4,0-246.6,0c-2.1,0.1-4.3,0.1-6.4-0.1c-4.2-0.5-7.2-2.6-7.2-7.3
	c-0.1-22.3-0.1-44.6,0-66.8c0-4.6,2.9-6.8,7.1-7.3c1.8-0.2,3.6-0.2,5.4-0.1c165.2,0,330.4,0,495.6,0c2-0.1,4,0,5.9,0.2
	c4,0.6,6.7,2.8,6.7,7.2c0,22.3,0.1,44.6,0,66.8c0,4.6-2.9,6.8-7.1,7.4c-2,0.2-4,0.2-5.9,0.1C524.8,400.8,442.3,400.8,359.8,400.8z"
	/>
</svg>
