<svg id="Layer_1" data-name="Layer 1" xmlns="http://www.w3.org/2000/svg" viewBox="0 0 3420 3876">
  <defs>
    <style>
      .cls-1 {
        fill: none;
      }

      .cls-2 {
        fill: #0d5eff;
        opacity: 0.9;
      }
    </style>
  </defs>
  <rect class="cls-1" width="3420" height="3876"/>
  <rect id="J001002" class="cls-2" x="2035.20064" y="603.34078" width="20.00002" height="162.69804" rx="10" transform="translate(-330.7743 27.58689) rotate(-4.42819)"/>
  <path id="J002003" class="cls-2" d="M2058.90026,743.89446h0a10,10,0,0,1,10,10V991.16751a10,10,0,0,1-10,10h0a10,10,0,0,1-10-10v-237.273a10,10,0,0,1,10-10Z" transform="translate(-339.7885 13.16089) rotate(-3.99404)"/>
  <path id="J003004" class="cls-2" d="M2104.55449,943.73652h0a10,10,0,0,1,10,10v74.30192a10,10,0,0,1-10,10h0a10,10,0,0,1-10-10V953.73652a10,10,0,0,1,10-10Z" transform="translate(2811.42713 -1246.03313) rotate(90)"/>
  <rect id="J003005" class="cls-2" x="2059.56209" y="980.49586" width="20.00002" height="89.47128" rx="10" transform="translate(-343.71473 -1.80231) rotate(-3.56211)"/>
  <path id="J004006" class="cls-2" d="M2142.88873,980.91057h0a10,10,0,0,1,10,10v104.88492a10,10,0,0,1-10,10h0a10,10,0,0,1-10-10V990.91057a10,10,0,0,1,10-10Z" transform="translate(-311.76603 -73.3301) rotate(-1.56823)"/>
  <rect id="J005007" class="cls-2" x="2070.01313" y="1048.24845" width="20.00002" height="290.84671" rx="10" transform="translate(-354.15236 -0.84267) rotate(-3.56171)"/>
  <path id="J006008" class="cls-2" d="M2147.86332,1085.68072h0a10,10,0,0,1,10,10v230.72846a10,10,0,0,1-10,10h0a10,10,0,0,1-10-10V1095.68072A10,10,0,0,1,2147.86332,1085.68072Z" transform="translate(-320.1487 -65.91847) rotate(-1.75761)"/>
  <rect id="J007008" class="cls-2" x="2109.80874" y="1285.74601" width="20.00002" height="83.21659" rx="10" transform="translate(574.10968 3354.52785) rotate(-91.75836)"/>
  <path id="J008009" class="cls-2" d="M2266.28111,1198.63361h0a10,10,0,0,1,10,10V1438.2591a10,10,0,0,1-10,10h0a10,10,0,0,1-10-10V1208.63361A10,10,0,0,1,2266.28111,1198.63361Z" transform="translate(3250.16216 -1106.74054) rotate(88.60536)"/>
  <path id="J007010" class="cls-2" d="M2089.44658,1316.5716h0a10,10,0,0,1,10,10v59.46284a10,10,0,0,1-10,10h0a10,10,0,0,1-10-10V1326.5716a10,10,0,0,1,10-10Z" transform="translate(-339.21849 -43.27272) rotate(-2.41087)"/>
  <path id="J010011" class="cls-2" d="M1958.60494,1247.48494h0a10,10,0,0,1,10,10v263.85289a10,10,0,0,1-10,10h0a10,10,0,0,1-10-10V1257.48495a10,10,0,0,1,10-10Z" transform="translate(336.09404 3250.7919) rotate(-91.47612)"/>
  <path id="J011012" class="cls-2" d="M1495.42179,1067.543h0a10,10,0,0,1,10,10v661.22936a10,10,0,0,1-10,10h0a10,10,0,0,1-10-10V1077.543a10,10,0,0,1,10-10Z" transform="translate(-125.87154 2834.91974) rotate(-92.65856)"/>
  <path id="J012013" class="cls-2" d="M907.36787,1170.43922h0a10,10,0,0,1,10,10V1696.922a10,10,0,0,1-10,10h0a10,10,0,0,1-10-10v-516.4828a10,10,0,0,1,10-10Z" transform="translate(-759.79218 2296.27792) rotate(-93.35317)"/>
  <path id="J010015" class="cls-2" d="M2094.28141,1375.24813h0a10,10,0,0,1,10,10v171.781a10,10,0,0,1-10,10h0a10,10,0,0,1-10-10v-171.781a10,10,0,0,1,10-10Z" transform="translate(-344.04482 -42.96765) rotate(-2.41087)"/>
  <path id="J015017" class="cls-2" d="M2098.93518,1546.85739h0a10,10,0,0,1,10,10v52.3721a10,10,0,0,1-10,10h0a10,10,0,0,1-10-10v-52.37208a10,10,0,0,1,10-10Z" transform="translate(-348.74816 -42.67261) rotate(-2.41087)"/>
  <path id="J017019" class="cls-2" d="M2103.86908,1599.307h.0001a10,10,0,0,1,10,10v182.75763a10,10,0,0,1-10,10h-.00009a10,10,0,0,1-10-10V1609.307A10,10,0,0,1,2103.86908,1599.307Z" transform="translate(-353.6916 -42.36208) rotate(-2.41084)"/>
  <path id="J019021" class="cls-2" d="M2111.853,1782.084h0a10,10,0,0,1,10,10v95.99049a10,10,0,0,1-10,10h0a10,10,0,0,1-10-10V1792.084a10,10,0,0,1,10-10Z" transform="translate(-419.57844 35.90774) rotate(-4.4212)"/>
  <path id="J021023" class="cls-2" d="M2116.64072,1878.16854h0a10,10,0,0,1,10,10v55.99407a10,10,0,0,1-10,10h0a10,10,0,0,1-10-10v-55.994A10,10,0,0,1,2116.64072,1878.16854Z" transform="matrix(0.99911, -0.04207, 0.04207, 0.99911, -362.74541, -41.6329)"/>
  <path id="J023027" class="cls-2" d="M2122.97788,1934.27961h0a10,10,0,0,1,10,10V2137.9544a10,10,0,0,1-10,10h0a10,10,0,0,1-10-10V1944.27961a10,10,0,0,1,10-10Z" transform="translate(-390.13433 -15.90975) rotate(-3.0656)"/>
  <path id="J027025" class="cls-2" d="M2120.24062,2144.25836l0,0a10.62564,10.62564,0,0,1,1.32583-13.98235l81.58835-71.85945a8.505,8.505,0,0,1,12.70355,1.62568l0,0a10.62564,10.62564,0,0,1-1.32583,13.98235l-81.58834,71.85945A8.505,8.505,0,0,1,2120.24062,2144.25836Z" transform="translate(-284.01484 -132.3661)"/>
  <path id="J025026" class="cls-2" d="M2254.29853,2015.053h0a10,10,0,0,1,10,10v82.269a10,10,0,0,1-10,10h0a10,10,0,0,1-10-10v-82.269a10,10,0,0,1,10-10Z" transform="translate(4036.47119 -320.47715) rotate(90)"/>
  <path id="J027028" class="cls-2" d="M2129.02377,2128.34649h0a10,10,0,0,1,10,10v31.31865a10,10,0,0,1-10,10h0a10,10,0,0,1-10-10V2138.3465A10,10,0,0,1,2129.02377,2128.34649Z" transform="translate(-396.1911 -15.39384) rotate(-3.0664)"/>
  <path id="J028029" class="cls-2" d="M2130.16742,2159.76384h0a10,10,0,0,1,10,10v42.83769a10,10,0,0,1-10,10h0a10,10,0,0,1-10-10v-42.83767A10,10,0,0,1,2130.16742,2159.76384Z" transform="translate(-328.3711 -88.35401) rotate(-1.17157)"/>
  <path id="J029032" class="cls-2" d="M2132.0742,2202.41493h0a10,10,0,0,1,10,10v59.05674a10,10,0,0,1-10,10h0a10,10,0,0,1-10-10v-59.05672a10,10,0,0,1,10-10Z" transform="translate(-400.35855 -15.66797) rotate(-3.05204)"/>
  <path id="J032036" class="cls-2" d="M2134.64888,2261.42476h0a10,10,0,0,1,10,10v78.90576a10,10,0,0,1-10,10h0a10,10,0,0,1-10-10v-78.90574A10,10,0,0,1,2134.64888,2261.42476Z" transform="translate(-330.81841 -88.23646) rotate(-1.17159)"/>
  <path id="J036037" class="cls-2" d="M2135.9154,2340.51336h0a10,10,0,0,1,10,10v35.75828a10,10,0,0,1-10,10h0a10,10,0,0,1-10-10v-35.75826a10,10,0,0,1,10-10Z" transform="translate(-331.99283 -88.19978) rotate(-1.17156)"/>
  <path id="J037038" class="cls-2" d="M2136.6793,2375.92394h0a10,10,0,0,1,10,10v39.64373a10,10,0,0,1-10,10h0a10,10,0,0,1-10-10v-39.6437a10,10,0,0,1,10-10Z" transform="translate(-332.75732 -88.17549) rotate(-1.17158)"/>
  <path id="J038041" class="cls-2" d="M2141.51658,2415.64779h0a10,10,0,0,1,10,10v169.51886a10,10,0,0,1-10,10h0a10,10,0,0,1-10-10V2425.64779A10,10,0,0,1,2141.51658,2415.64779Z" transform="translate(-415.15619 -14.29323) rotate(-3.06443)"/>
  <path id="J041042" class="cls-2" d="M2146.148,2584.34839h0a10,10,0,0,1,10,10v13.04536a10,10,0,0,1-10,10h0a10,10,0,0,1-10-10v-13.04533a10,10,0,0,1,10-10Z" transform="translate(-344.63811 -81.13072) rotate(-1.34872)"/>
  <path id="J042046" class="cls-2" d="M2147.18964,2598.51246h0a10,10,0,0,1,10,10v73.20082a10,10,0,0,1-10,10h0a10,10,0,0,1-10-10v-73.2008A10,10,0,0,1,2147.18964,2598.51246Z" transform="translate(-345.67853 -81.09448) rotate(-1.34871)"/>
  <path id="J046047" class="cls-2" d="M2149.9511,2671.56619h0a10,10,0,0,1,10,10v39.33443a10,10,0,0,1-10,10h0a10,10,0,0,1-10-10v-39.33441A10,10,0,0,1,2149.9511,2671.56619Z" transform="translate(-522.50739 76.01982) rotate(-5.25792)"/>
  <path id="J047048" class="cls-2" d="M2154.54623,2710.85413h0a10,10,0,0,1,10,10v60.62365a10,10,0,0,1-10,10h0a10,10,0,0,1-10-10v-60.62363A10,10,0,0,1,2154.54623,2710.85413Z" transform="translate(-527.05321 76.641) rotate(-5.25768)"/>
  <path id="J048049" class="cls-2" d="M2161.92371,2771.22551h0a10,10,0,0,1,10,10v147.97777a10,10,0,0,1-10,10h0a10,10,0,0,1-10-10V2781.22552a10,10,0,0,1,10-10Z" transform="translate(-467.05405 15.94743) rotate(-3.76964)"/>
  <path id="J049050" class="cls-2" d="M2220.18954,2864.65809h0a10,10,0,0,1,10,10v106.59478a10,10,0,0,1-10,10h0a10,10,0,0,1-10-10V2874.65809A10,10,0,0,1,2220.18954,2864.65809Z" transform="translate(4817.89225 515.70585) rotate(88.82262)"/>
  <path id="J050051" class="cls-2" d="M2298.41654,2890.21236h0a10,10,0,0,1,10,10v51.51518a10,10,0,0,1-10,10h0a10,10,0,0,1-10-10v-51.51515a10,10,0,0,1,10-10Z" transform="translate(-818.26663 5206.0733) rotate(-92.26925)"/>
  <path id="J051053" class="cls-2" d="M2351.56644,2885.73175h0a10,10,0,0,1,10,10v54.96244a10,10,0,0,1-10,10h0a10,10,0,0,1-10-10v-54.96241a10,10,0,0,1,10-10Z" transform="translate(-693.79899 5330.52827) rotate(-93.79071)"/>
  <path id="J053061" class="cls-2" d="M2398.45641,2889.48665h0a10,10,0,0,1,10,10v41.24318a10,10,0,0,1-10,10h0a10,10,0,0,1-10-10v-41.24315a10,10,0,0,1,10-10Z" transform="translate(-641.13221 5373.55696) rotate(-93.78138)"/>
  <path id="J061062" class="cls-2" d="M2487.45285,2835.57459h0a10,10,0,0,1,10,10V2982.859a10,10,0,0,1-10,10h0a10,10,0,0,1-10-10V2845.5746a10,10,0,0,1,10-10Z" transform="translate(-540.0214 5456.45564) rotate(-93.78923)"/>
  <path id="J063062" class="cls-2" d="M2552.20668,2691.7951h0a10,10,0,0,1,10,10v207.97134a10,10,0,0,1-10,10h0a10,10,0,0,1-10-10V2701.79511a10,10,0,0,1,10-10Z" transform="translate(-380.79904 -41.17775) rotate(-2.00883)"/>
  <path id="J065073" class="cls-2" d="M2942.88229,2611.66113h0a10,10,0,0,1,10,10v414.70762a10,10,0,0,1-10,10h0a10,10,0,0,1-10-10V2621.6611a10,10,0,0,1,10-10Z" transform="translate(5624.04513 5502.28648) rotate(179.54658)"/>
  <path id="J062066" class="cls-2" d="M2558.90064,2899.62335h0a10,10,0,0,1,10,10v174.20528a10,10,0,0,1-10,10h0a10,10,0,0,1-10-10V2909.62335a10,10,0,0,1,10-10Z" transform="translate(-387.27762 -41.01876) rotate(-2.00468)"/>
  <path id="J066071" class="cls-2" d="M2630.9168,3024.9314h0a10,10,0,0,1,10,10v145.34341a10,10,0,0,1-10,10h0a10,10,0,0,1-10-10V3034.9314a10,10,0,0,1,10-10Z" transform="translate(-1441.07671 4468.60159) rotate(-71.26477)"/>
  <path id="J071074" class="cls-2" d="M2769.32071,3076.20259h0a10,10,0,0,1,10,10v153.66806a10,10,0,0,1-10,10h0a10,10,0,0,1-10-10v-153.668a10,10,0,0,1,10-10Z" transform="translate(-1544.55282 4228.24166) rotate(-65.34762)"/>
  <path id="J071072" class="cls-2" d="M2787.272,2978.29406h0a10,10,0,0,1,10,10V3184.105a10,10,0,0,1-10,10h0a10,10,0,0,1-10-10V2988.29407a10,10,0,0,1,10-10Z" transform="translate(1022.21819 6839.70994) rotate(-117.04999)"/>
  <path id="J074075" class="cls-2" d="M2908.99147,3112.83336h0a10,10,0,0,1,10,10v139.87988a10,10,0,0,1-10,10h0a10,10,0,0,1-10-10V3122.83336a10,10,0,0,1,10-10Z" transform="translate(-475.58937 6067.48602) rotate(-91.78587)"/>
  <path id="J072073" class="cls-2" d="M2954.32644,3035.65462v0c.42986,5.50966-3.19786,10.28383-8.10006,10.65988l-71.68474,5.499c-4.89588.37557-9.21022-3.77821-9.63951-9.28077v0c-.42985-5.50967,3.19787-10.28383,8.10007-10.65988l71.68472-5.499C2949.5828,3025.99828,2953.89714,3030.15205,2954.32644,3035.65462Z" transform="translate(-284.01484 -132.3661)"/>
  <path id="J074079" class="cls-2" d="M2839.07532,3184.9669h0a10,10,0,0,1,10,10v226.43676a10,10,0,0,1-10,10h0a10,10,0,0,1-10-10V3194.9669a10,10,0,0,1,10-10Z" transform="translate(5394.13582 6484.00443) rotate(180)"/>
  <path id="J078079" class="cls-2" d="M2829.13283,3422.42353l0,0a9.96246,9.96246,0,0,1,8.81236-10.9661l359.94113-37.27436a9.91156,9.91156,0,0,1,10.83007,8.92971l0,0a9.96247,9.96247,0,0,1-8.81237,10.96609l-359.94112,37.27436A9.91156,9.91156,0,0,1,2829.13283,3422.42353Z" transform="translate(-284.01484 -132.3661)"/>
  <path id="J081082" class="cls-2" d="M2178.832,3220.93h0a10,10,0,0,1,10,10v213.93151a10,10,0,0,1-10,10h0a10,10,0,0,1-10-10V3230.93a10,10,0,0,1,10-10Z" transform="translate(-385.03222 -64.2018) rotate(-1.75174)"/>
  <path id="J079080" class="cls-2" d="M2716.43116,3294.85613h0a10,10,0,0,1,10,10v245.63837a10,10,0,0,1-10,10h0a10,10,0,0,1-10-10V3304.85613a10,10,0,0,1,10-10Z" transform="translate(-850.1419 6185.42473) rotate(-92.96537)"/>
  <path id="J080081" class="cls-2" d="M2387.99962,3224.01h0a10,10,0,0,1,10,10v411.235a10,10,0,0,1-10,10h0a10,10,0,0,1-10-10V3234.01A10,10,0,0,1,2387.99962,3224.01Z" transform="translate(-1270.06414 5787.05442) rotate(-91.54368)"/>
  <path id="J049082" class="cls-2" d="M2171.33636,2919.10674h0a10,10,0,0,1,10,10v302.79092a10,10,0,0,1-10,10h0a10,10,0,0,1-10-10v-302.7909a10,10,0,0,1,10-10Z" transform="translate(4149.29702 5962.71106) rotate(178.29605)"/>
  <path id="J049083" class="cls-2" d="M2059.9434,2813.59848h0a9.99991,9.99991,0,0,1,9.99991,9.99991v213.80136a9.99991,9.99991,0,0,1-9.99991,9.99991h0a9.99992,9.99992,0,0,1-9.99992-9.99992V2823.5984A9.99992,9.99992,0,0,1,2059.9434,2813.59848Z" transform="matrix(0.01242, 0.99992, -0.99992, 0.01242, 4680.61105, 701.94326)"/>
  <path id="J083084" class="cls-2" d="M1926.48424,2896.33755h0a10,10,0,0,1,10,10v53.45728a10,10,0,0,1-10,10h0a10,10,0,0,1-10-10v-53.45726a10,10,0,0,1,10-10Z" transform="matrix(0.04436, 0.99902, -0.99902, 0.04436, 4487.18916, 746.001)"/>
  <path id="J084085" class="cls-2" d="M1881.24869,2908.58089h0a10,10,0,0,1,10,10v35.93464a10,10,0,0,1-10,10h0a10,10,0,0,1-10-10v-35.93462A10,10,0,0,1,1881.24869,2908.58089Z" transform="translate(-1091.30175 5025.48538) rotate(-96.91901)"/>
  <path id="J110111" class="cls-2" d="M1866.99582,1763.8839h0a10,10,0,0,1,10,10v54.65054a10,10,0,0,1-10,10h0a10,10,0,0,1-10-10v-54.65052A10,10,0,0,1,1866.99582,1763.8839Z" transform="matrix(-0.0213, 0.99977, -0.99977, -0.0213, 3423.54577, -159.3662)"/>
  <path id="J112111" class="cls-2" d="M1814.36519,1767.09432h0a10,10,0,0,1,10,10v50.35775a10,10,0,0,1-10,10h0a10,10,0,0,1-10-10v-50.35772a10,10,0,0,1,10-10Z" transform="translate(-148.08027 3599.4097) rotate(-93.78917)"/>
  <path id="J110158" class="cls-2" d="M1885.5822,1801.94154v0c-.22437-5.51806,3.26728-10.15385,7.79869-10.35415l183.65688-8.1184c4.53114-.2003,8.38611,4.1102,8.61046,9.62792v0c.22437,5.51806-3.26729,10.15385-7.7987,10.35416l-183.65687,8.11839C1889.66153,1811.76976,1885.80656,1807.45926,1885.5822,1801.94154Z" transform="translate(-284.01484 -132.3661)"/>
  <path id="J112113" class="cls-2" d="M1719.49825,1725.96075h0a10,10,0,0,1,10,10v138.11278a10,10,0,0,1-10,10h0a10,10,0,0,1-10-10V1735.96076A10,10,0,0,1,1719.49825,1725.96075Z" transform="translate(3214.82324 -73.40477) rotate(89.15097)"/>
  <path id="J113114" class="cls-2" d="M1655.83333,1795.97566h.00005a10,10,0,0,1,10,10v459.35561a10,10,0,0,1-10,10h-.00005a10,10,0,0,1-10-10V1805.97563A10,10,0,0,1,1655.83333,1795.97566Z" transform="translate(-331.47053 -92.82775) rotate(-1.34873)"/>
  <path id="J114116" class="cls-2" d="M1670.12238,2254.99474h0a10,10,0,0,1,10,10v215.87355a10,10,0,0,1-10,10h0a10,10,0,0,1-10-10V2264.99474a10,10,0,0,1,10-10Z" transform="translate(-472.34789 12.05556) rotate(-4.68752)"/>
  <path id="J116117" class="cls-2" d="M1682.71223,2470.26631h0a10,10,0,0,1,10,10v89.74248a10,10,0,0,1-10,10h0a10,10,0,0,1-10-10v-89.74246A10,10,0,0,1,1682.71223,2470.26631Z" transform="translate(-484.76576 13.61053) rotate(-4.68804)"/>
  <path id="J085118" class="cls-2" d="M1784.94679,2855.244h0a10,10,0,0,1,10,10v156.98349a10,10,0,0,1-10,10h0a10,10,0,0,1-10-10V2865.244A10,10,0,0,1,1784.94679,2855.244Z" transform="translate(4323.57819 840.51112) rotate(86.30678)"/>
  <path id="J118119" class="cls-2" d="M1605.37195,2842.78876h0a10,10,0,0,1,10,10v205.08066a10,10,0,0,1-10,10h0a10,10,0,0,1-10-10V2852.78876a10,10,0,0,1,10-10Z" transform="translate(-1524.44113 4615.3417) rotate(-93.69273)"/>
  <path id="J142113" class="cls-2" d="M1577.40751,1724.55h0a10,10,0,0,1,10,10V1880.5513a10,10,0,0,1-10,10h0a10,10,0,0,1-10-10V1734.55a10,10,0,0,1,10-10Z" transform="translate(3068.87337 61.76515) rotate(88.84832)"/>
  <path id="J142143" class="cls-2" d="M1453.31486,1751.58556h0a10,10,0,0,1,10,10v102.25908a10,10,0,0,1-10,10h0a10,10,0,0,1-10-10V1761.58556A10,10,0,0,1,1453.31486,1751.58556Z" transform="translate(-535.01533 3259.3896) rotate(-94.09464)"/>
  <path id="J012144" class="cls-2" d="M1176.63043,1413.20809h0a10,10,0,0,1,10,10v405.88571a10,10,0,0,1-10,10h0a10,10,0,0,1-10-10V1423.20809A10,10,0,0,1,1176.63043,1413.20809Z" transform="translate(-373.77562 -63.48179) rotate(-3.23021)"/>
  <path id="J143144" class="cls-2" d="M1295.08642,1705.44079h0a10,10,0,0,1,10,10V1929.5653a10,10,0,0,1-10,10h0a10,10,0,0,1-10-10v-214.1245a10,10,0,0,1,10-10Z" transform="translate(2754.693 290.65468) rotate(86.64637)"/>
  <path id="J144145" class="cls-2" d="M1197.5151,1818.52363h0a10,10,0,0,1,10,10V2214.893a10,10,0,0,1-10,10h0a10,10,0,0,1-10-10v-386.3694a10,10,0,0,1,10-10Z" transform="translate(-382.32584 -70.80616) rotate(-2.82866)"/>
  <path id="J145146" class="cls-2" d="M1212.39,2204.55228h0a10,10,0,0,1,10,10v208.21983a10,10,0,0,1-10,10h0a10,10,0,0,1-10-10V2214.55228A10,10,0,0,1,1212.39,2204.55228Z" transform="translate(-398.88547 -68.57932) rotate(-2.87752)"/>
  <path id="J146147" class="cls-2" d="M1223.64379,2412.35348h0a10,10,0,0,1,10,10V2636.217a10,10,0,0,1-10,10h0a10,10,0,0,1-10-10V2422.35349a10,10,0,0,1,10-10Z" transform="translate(-421.60663 -61.05272) rotate(-3.16063)"/>
  <path id="J147148" class="cls-2" d="M1232.08391,2625.82137h0a10,10,0,0,1,10,10v90.85607a10,10,0,0,1-10,10h0a10,10,0,0,1-10-10v-90.85605A10,10,0,0,1,1232.08391,2625.82137Z" transform="translate(-429.88657 -60.40154) rotate(-3.15874)"/>
  <path id="J148149" class="cls-2" d="M1239.36978,2716.46269h0a10,10,0,0,1,10,10v162.56361a10,10,0,0,1-10,10h0a10,10,0,0,1-10-10V2726.46269a10,10,0,0,1,10-10Z" transform="translate(-448.93227 -53.62216) rotate(-3.41221)"/>
  <path id="J149151" class="cls-2" d="M1246.88247,2878.63067h0a10,10,0,0,1,10,10v87.28358a10,10,0,0,1-10,10h0a10,10,0,0,1-10-10v-87.28355a10,10,0,0,1,10-10Z" transform="translate(-464.52893 -48.86123) rotate(-3.57698)"/>
  <path id="J151119" class="cls-2" d="M1376.3935,2832.02693h0a10,10,0,0,1,10,10v253.82336a10,10,0,0,1-10,10h0a10,10,0,0,1-10-10V2842.02693A10,10,0,0,1,1376.3935,2832.02693Z" transform="translate(3981.9715 1300.56834) rotate(86.87882)"/>
  <path id="J151152" class="cls-2" d="M1196.99309,2916.04163h0a10,10,0,0,1,10,10V3031.3728a10,10,0,0,1-10,10h0a10,10,0,0,1-10-10V2926.04163a10,10,0,0,1,10-10Z" transform="translate(3822.17078 1489.1057) rotate(86.8821)"/>
  <path id="J152153" class="cls-2" d="M745.24191,2999.53294a10.06185,10.06185,0,0,1,9.664-10.44447l389.04571-17.47212a10.00068,10.00068,0,1,1,.89721,19.97974L755.80318,3009.0682A10.06191,10.06191,0,0,1,745.24191,2999.53294Z" transform="translate(-284.01484 -132.3661)"/>
  <path id="J153157" class="cls-2" d="M609.22086,2845.21074h0a10,10,0,0,1,10,10v292.03341a10,10,0,0,1-10,10h0a10,10,0,0,1-10-10V2855.21074a10,10,0,0,1,10-10Z" transform="translate(3317.14295 2215.53933) rotate(89.15678)"/>
  <path id="J158019" class="cls-2" d="M2091.958,1766.5978h0a10,10,0,0,1,10,10V1808.829a10,10,0,0,1-10,10h0a10,10,0,0,1-10-10v-32.2312a10,10,0,0,1,10-10Z" transform="translate(3488.66575 -522.60512) rotate(86.9987)"/>
</svg>
