<?xml version="1.0" encoding="utf-8"?>
<!-- Generator: Adobe Illustrator 25.4.1, SVG Export Plug-In . SVG Version: 6.00 Build 0)  -->
<svg version="1.1" id="Layer_1" xmlns="http://www.w3.org/2000/svg" xmlns:xlink="http://www.w3.org/1999/xlink" x="0px" y="0px"
	 viewBox="0 0 720 720" style="enable-background:new 0 0 720 720;" xml:space="preserve">
<style type="text/css">
	.st0{fill:none;}
	.st1{fill:#E1E8EB;stroke:#000000;stroke-miterlimit:10;}
</style>
<rect class="st0" width="720" height="720"/>
<path class="st1" d="M186.1,319.6c1.8-0.1,3.6-0.2,5.3-0.2c40.8,0,81.6-0.1,122.4,0.1c4.6,0,5.7-1.4,5.7-5.8
	c-0.2-42.1-0.1-84.3-0.1-126.4c0-1.8,0.2-3.6,0.3-5.3c0.6-1.9,0.4-3.8,0.4-5.8c0-21.9,0-43.8,0-65.7c0-7.5,1.8-9.3,9.2-9.3
	c20.7,0,41.4,0,62.2,0c6.5,0,7.6,1.1,8.5,7.6c0.2,1.9,0.2,3.9,0.2,5.8c0,66,0,132,0,198c0,7.3,0.3,7.6,7.5,7.6
	c66.8,0,133.5,0,200.3,0c1.5,0,3,0,4.5,0c4.5,0.2,6.2,1.8,6.3,6.3c0.1,5.8,0,11.6,0,17.4c0,15.6,0,31.3,0,46.9
	c0,7.7-1.1,8.8-8.7,8.8c-67.2,0-134.4,0-201.7,0c-1.5,0-3-0.1-4.5,0.1c-2,0-3.7,1.7-3.7,3.7c-0.1,1.5-0.1,3-0.1,4.5
	c0,65.9,0,131.7,0,197.6c0.1,2.2-0.1,4.5-0.4,6.7c-0.8,5.4-1.9,6.5-7.6,6.5c-21.2,0-42.3,0-63.5,0c-6.6,0-8.6-2-8.6-8.5
	c0-18.3,0-36.7,0-55c0-49.3,0-98.6,0-148c0-7.6,0-7.6-7.8-7.6c-66.9,0-133.8,0-200.8,0c-1.5,0-3,0.1-4.5,0c-3.9-0.2-5.6-1.8-6-5.8
	c-0.1-1-0.1-2.1-0.1-3.1c0-20.6,0-41.1,0-61.7c0-7.7,1.3-8.9,9.2-8.9c23.4,0,46.8,0,70.2,0C182.3,320.2,184.3,320.6,186.1,319.6z"/>
</svg>
