<svg id="Layer_1" data-name="Layer 1" xmlns="http://www.w3.org/2000/svg" viewBox="0 0 345.97041 437.43026"><defs><style>.cls-1{fill:#7b68ee;stroke:#000;stroke-miterlimit:10;stroke-width:15px;}</style></defs><path class="cls-1" d="M848.41,271.21c-33.42-129.32-187.42-161.97-273.86-79.89-63.61,60.41-69.48,162.48-13.12,232.32,37.11,45.99,74.98,91.37,112.58,136.97,8.98,10.89,19.53,11,28.43.21,37.76-45.79,75.66-91.46,113.02-137.57a168.7635,168.7635,0,0,0,38.23-105.32C853.64,299.87,852.07,285.41,848.41,271.21ZM688.14,373.97c-35.51-.11-64.71-29.32-64.79-64.79a64.95064,64.95064,0,0,1,129.9-.48C753.38,344.47,723.84,374.09,688.14,373.97Z" transform="translate(-515.21972 -138.91518)"/></svg>